<?xml version="1.0" standalone="no"?>
<!DOCTYPE svg PUBLIC "-//W3C//DTD SVG 20010904//EN"
 "http://www.w3.org/TR/2001/REC-SVG-20010904/DTD/svg10.dtd">
<svg version="1.0" xmlns="http://www.w3.org/2000/svg"
 width="16.000000pt" height="16.000000pt" viewBox="0 0 16.000000 16.000000"
 preserveAspectRatio="xMidYMid meet">
<metadata>
Created by potrace 1.11, written by Peter Selinger 2001-2013
</metadata>
<g transform="translate(0.000000,16.000000) scale(0.002667,-0.002667)"
fill="#000000" stroke="none">
<path d="M1321 5469 c-25 -5 -62 -11 -84 -14 -21 -4 -51 -11 -66 -16 -14 -6
-27 -10 -29 -10 -6 3 -61 -12 -97 -26 -22 -8 -48 -17 -59 -19 -10 -2 -26 -10
-36 -19 -10 -9 -24 -13 -34 -9 -9 4 -16 3 -15 -2 3 -20 -2 -28 -10 -15 -8 12
-21 9 -81 -17 -109 -48 -205 -116 -306 -216 -181 -180 -280 -388 -321 -671
-20 -145 -13 -433 15 -590 70 -386 228 -792 455 -1169 134 -221 137 -227 137
-278 0 -29 -36 -185 -90 -388 -49 -187 -90 -357 -90 -378 0 -28 7 -45 26 -63
l26 -24 446 -5 c359 -4 452 -8 472 -19 14 -8 79 -61 145 -117 615 -530 1262
-865 1890 -980 119 -22 475 -31 588 -14 179 25 335 78 469 157 88 53 181 130
172 144 -3 5 -2 8 3 7 28 -9 249 228 284 305 25 55 40 44 119 -85 33 -54 71
-71 98 -44 14 14 17 38 17 131 l0 115 23 -45 c12 -25 33 -66 45 -92 l24 -46 6
183 c4 101 7 250 7 332 0 81 4 148 9 148 13 0 125 105 157 147 l27 35 -59 57
c-33 31 -96 89 -141 129 l-81 73 -10 67 c-17 102 -16 100 -62 267 -17 62 -53
153 -92 230 -43 87 -88 150 -88 125 -2 -38 -10 -113 -13 -116 -2 -2 -23 42
-47 99 -54 129 -162 344 -235 467 l-56 95 16 59 c9 32 19 68 21 80 2 12 18 71
35 131 27 98 44 164 109 410 11 39 26 97 35 130 10 33 19 67 21 75 3 15 11 45
73 284 18 65 34 123 37 128 7 12 -1136 9 -1206 -3 -30 -5 -70 -12 -87 -14 -32
-5 -87 -18 -128 -30 -14 -4 -29 3 -50 23 -89 84 -388 297 -587 419 -103 62
-397 214 -498 257 -174 74 -483 173 -596 190 -22 4 -46 9 -55 11 -88 28 -494
43 -598 24z m-631 -282 c0 -2 -15 -16 -32 -33 l-33 -29 29 33 c28 30 36 37 36
29z m164 -582 c58 -246 190 -511 400 -805 l53 -75 -59 -223 -59 -224 27 -76
28 -76 11 45 c7 24 88 333 180 687 l169 643 640 -3 c579 -3 645 -5 685 -21
111 -43 160 -122 169 -266 7 -127 -8 -211 -113 -626 -187 -741 -340 -1277
-393 -1380 -46 -89 -163 -208 -252 -258 -86 -47 -223 -93 -340 -111 -127 -21
-1096 -24 -1094 -4 1 11 49 197 205 791 l10 37 68 0 c82 0 155 -20 241 -67
l65 -35 -51 54 c-83 87 -183 205 -290 343 -325 417 -521 829 -565 1187 -15
119 -6 289 21 398 26 106 94 245 163 330 l52 65 6 -130 c3 -71 14 -161 23
-200z m1098 309 c242 -31 533 -121 776 -241 91 -45 129 -68 120 -74 -7 -5
-307 -6 -665 -2 -637 6 -653 5 -654 -13 -1 -10 -1 -21 -1 -24 0 -3 -19 -3 -43
-2 -56 5 -100 -19 -124 -66 -10 -20 -36 -108 -57 -194 -22 -87 -42 -158 -45
-158 -7 0 -17 31 -26 80 -2 14 -8 43 -13 65 -15 62 -12 293 4 350 18 65 96
230 96 202 0 -4 17 1 38 11 146 74 354 97 594 66z m-562 -7 c0 -2 -12 -14 -27
-28 l-28 -24 24 28 c23 25 31 32 31 24z m3430 -934 l-137 -528 -336 -3 c-242
-2 -337 1 -337 9 0 6 25 106 55 222 95 362 124 437 198 509 l42 41 -70 -8
c-103 -11 -167 -38 -236 -102 -100 -93 -128 -165 -259 -658 -255 -964 -326
-1210 -366 -1274 -9 -14 -28 -37 -43 -49 l-26 -24 73 7 c202 18 278 83 347
295 27 86 126 440 175 628 l11 42 334 0 c290 0 335 -2 335 -15 0 -18 -141
-536 -177 -649 -85 -269 -292 -489 -538 -571 -72 -24 -80 -25 -380 -25 l-307
0 -131 71 c-167 90 -327 194 -327 212 0 8 11 59 25 113 270 1091 428 1670 489
1799 111 235 386 422 695 475 25 4 267 8 537 9 l490 1 -136 -527z m-1597 397
c-6 -7 -23 23 -23 40 0 8 6 4 13 -10 8 -14 12 -27 10 -30z m137 -3 c0 -2 -17
-19 -37 -38 l-38 -34 34 38 c33 34 41 42 41 34z m-3013 -229 c-3 -8 -6 -5 -6
6 -1 11 2 17 5 13 3 -3 4 -12 1 -19z m10 -130 c-3 -8 -6 -5 -6 6 -1 11 2 17 5
13 3 -3 4 -12 1 -19z m351 -1033 c-3 -3 -9 2 -12 12 -6 14 -5 15 5 6 7 -7 10
-15 7 -18z m3960 -188 c16 -19 69 -181 96 -296 l24 -101 -27 5 c-14 3 -68 13
-119 22 -106 18 -100 7 -66 128 9 33 18 67 20 75 1 8 12 44 23 80 12 36 21 73
21 83 0 20 13 22 28 4z m592 -393 c35 -84 73 -222 91 -326 l12 -73 71 -53 c39
-29 90 -71 114 -93 l43 -41 -35 -43 c-20 -24 -59 -60 -87 -81 l-52 -38 7 -94
c7 -105 -3 -352 -14 -352 -4 0 -17 24 -29 53 -24 58 -106 200 -147 254 l-25
33 -60 -41 c-114 -77 -229 -119 -331 -119 -32 0 -58 2 -58 5 0 3 28 38 63 78
116 134 188 248 222 355 l17 52 -39 48 c-22 26 -82 103 -133 172 -51 69 -111
146 -133 173 -36 43 -37 47 -17 47 39 0 196 -58 300 -110 56 -28 104 -49 106
-47 9 8 34 145 46 245 14 119 17 119 68 -4z m-280 -54 c0 -11 -4 -20 -9 -20
-5 0 -7 9 -4 20 3 11 7 20 9 20 2 0 4 -9 4 -20z m-302 -155 c-3 -3 -9 2 -12
12 -6 14 -5 15 5 6 7 -7 10 -15 7 -18z m-231 -21 c-3 -4 4 -15 17 -25 23 -18
154 -197 215 -293 17 -28 31 -61 31 -75 0 -42 -46 -105 -114 -155 -36 -27 -66
-51 -66 -55 0 -4 -8 -7 -17 -8 -10 -1 -31 -4 -48 -8 -58 -12 -101 -16 -210
-17 -99 -1 -241 8 -255 17 -3 1 -26 6 -53 9 -26 4 -60 11 -75 17 -15 6 -28 10
-29 10 -2 -1 -10 -1 -18 -1 -32 0 -12 17 63 54 110 54 200 117 253 175 26 28
49 51 52 51 31 0 214 223 240 293 3 9 10 17 13 17 4 0 4 -3 1 -6z m-1357 -419
c752 -500 1327 -664 1771 -502 80 29 188 88 235 129 70 62 43 17 -43 -70 -172
-174 -350 -260 -607 -292 -489 -62 -1227 192 -1968 676 -71 46 -128 85 -128
88 0 2 25 19 56 37 79 45 166 120 215 184 l40 54 122 -91 c67 -50 205 -146
307 -213z m1738 230 c-3 -3 -9 2 -12 12 -6 14 -5 15 5 6 7 -7 10 -15 7 -18z
m-253 -405 c-27 -12 -43 -12 -25 0 8 5 22 9 30 9 10 0 8 -3 -5 -9z m-2724 -27
c13 -16 12 -17 -3 -4 -10 7 -18 15 -18 17 0 8 8 3 21 -13z m3459 -303 c6 -11
8 -20 6 -20 -3 0 -10 9 -16 20 -6 11 -8 20 -6 20 3 0 10 -9 16 -20z m-1327
-727 c-7 -2 -19 -2 -25 0 -7 3 -2 5 12 5 14 0 19 -2 13 -5z m260 0 c-7 -2 -19
-2 -25 0 -7 3 -2 5 12 5 14 0 19 -2 13 -5z"/>
<path d="M2156 4165 c23 -30 26 -42 21 -80 -12 -83 -424 -1618 -479 -1780 -39
-115 -50 -137 -88 -169 l-32 -26 39 0 c56 0 165 26 210 49 43 21 103 83 126
128 48 94 200 635 411 1465 107 419 99 448 -137 448 l-98 0 27 -35z"/>
</g>
</svg>
